<svg width="40" height="40" viewBox="0 0 40 40" fill="none" xmlns="http://www.w3.org/2000/svg">
<path fill-rule="evenodd" clip-rule="evenodd" d="M15.6273 33.3798L30.2713 14.4424C31.0672 13.4212 31.3501 12.2405 31.0849 11.0383C30.8549 9.94543 30.1829 8.90629 29.1748 8.11797L26.7164 6.16511C24.5764 4.46307 21.9235 4.64223 20.4025 6.5951L18.7577 8.72892C18.5455 8.99587 18.5986 9.39002 18.8639 9.60502C18.8639 9.60502 23.0201 12.9374 23.1085 13.0091C23.3915 13.2778 23.6037 13.6362 23.6568 14.0662C23.7452 14.9082 23.1615 15.6965 22.2949 15.804C21.8882 15.8578 21.4991 15.7324 21.2161 15.4995L16.8477 12.0237C16.6354 11.8643 16.3171 11.8983 16.1402 12.1133L5.75856 25.5505C5.0865 26.3925 4.85658 27.4854 5.0865 28.5425L6.41294 34.2936C6.48369 34.5981 6.74898 34.8131 7.06732 34.8131L12.9037 34.7415C13.9648 34.7236 14.9553 34.2398 15.6273 33.3798ZM23.7995 31.5888H33.3163C34.2449 31.5888 35 32.3539 35 33.2945C35 34.2368 34.2449 35.0001 33.3163 35.0001H23.7995C22.871 35.0001 22.1158 34.2368 22.1158 33.2945C22.1158 32.3539 22.871 31.5888 23.7995 31.5888Z" fill="#200E32"/>
</svg>
