<svg width="80" height="80" viewBox="0 0 80 80" fill="none" xmlns="http://www.w3.org/2000/svg">
<path fill-rule="evenodd" clip-rule="evenodd" d="M40.5827 50.7216H39.417C31.4058 50.7216 24.9121 44.3092 24.9121 36.4012V20.9902C24.9121 13.0791 31.4058 6.66663 39.417 6.66663H40.5827C47.2314 6.66663 52.8338 11.0798 54.5484 17.1032C54.7841 17.9291 54.1609 18.7486 53.2955 18.7486H49.5208C48.3809 18.7486 47.4542 19.6606 47.4542 20.7862V20.7894C47.4542 21.9181 48.3809 22.8301 49.5208 22.8301H53.0017C54.1544 22.8301 55.0909 23.7516 55.0909 24.89C55.0909 26.0284 54.1544 26.9499 53.0017 26.9499H49.5208C48.3809 26.9499 47.4542 27.8651 47.4542 28.9939C47.4542 30.1195 48.3809 31.0346 49.5208 31.0346H53.0017C54.1544 31.0346 55.0909 31.9562 55.0909 33.0977C55.0909 34.2329 54.1544 35.1544 53.0017 35.1544H49.5208C48.3809 35.1544 47.4542 36.0696 47.4542 37.1984C47.4542 38.324 48.3809 39.2359 49.5208 39.2359H53.1115C53.9962 39.2359 54.6291 40.0905 54.3514 40.9196C52.4366 46.6146 46.9989 50.7216 40.5827 50.7216ZM61.8753 35.9426C61.8753 34.1792 63.3219 32.7539 65.1044 32.7539C66.8868 32.7539 68.3334 34.1792 68.3334 35.9426C68.3334 50.2885 57.3353 62.1345 43.2308 63.7257V70.1445C43.2308 71.9047 41.7841 73.3332 40.0017 73.3332C38.216 73.3332 36.7726 71.9047 36.7726 70.1445V63.7257C22.6649 62.1345 11.6667 50.2885 11.6667 35.9426C11.6667 34.1792 13.1134 32.7539 14.8958 32.7539C16.6782 32.7539 18.1249 34.1792 18.1249 35.9426C18.1249 47.8524 27.938 57.5428 40.0017 57.5428C52.0622 57.5428 61.8753 47.8524 61.8753 35.9426Z" fill="#200E32"/>
</svg>
