<svg width="80" height="80" viewBox="0 0 80 80" fill="none" xmlns="http://www.w3.org/2000/svg">
<path fill-rule="evenodd" clip-rule="evenodd" d="M36.1166 40.022L36.1217 41.2023C36.1622 45.8839 36.4444 50.0609 36.9311 52.7079C36.9311 52.7556 37.462 55.3809 37.8002 56.2548C38.3311 57.5179 39.2911 58.59 40.4947 59.2693C41.4584 59.754 42.4693 60 43.5274 60C44.3592 59.9614 45.731 59.5429 46.7101 59.1919L47.5237 58.8801C52.9128 56.7395 63.2145 49.7448 67.1599 45.4672L67.4507 45.1682L68.7489 43.7672C69.5671 42.6951 69.9998 41.3842 69.9998 39.9743C69.9998 38.7112 69.6144 37.4481 68.8435 36.4274C68.6127 36.0967 68.241 35.6724 67.9101 35.314L66.6465 33.9913C62.2983 29.5857 52.8837 23.4061 48.0037 21.3585C48.0037 21.3145 44.971 20.0477 43.5274 20H43.3347C41.1202 20 39.0511 21.2631 37.9929 23.3046C37.7039 23.8627 37.4266 24.9559 37.2157 25.9161L36.8366 27.729C36.4039 30.6444 36.1166 35.1166 36.1166 40.022ZM15.0108 34.9389C12.2436 34.9389 10 37.2044 10 39.9986C10 42.7928 12.2436 45.0583 15.0108 45.0583L27.3416 43.9678C29.5125 43.9678 31.2725 42.1943 31.2725 39.9986C31.2725 37.8066 29.5125 36.0294 27.3416 36.0294L15.0108 34.9389Z" fill="#200E32"/>
</svg>
