<svg width="40" height="40" viewBox="0 0 40 40" fill="none" xmlns="http://www.w3.org/2000/svg">
<path d="M35.7256 4.30331C34.892 3.44767 33.6581 3.1289 32.5077 3.46444L5.68 11.2659C4.46617 11.6031 3.60582 12.5711 3.37406 13.8009C3.1373 15.0525 3.9643 16.6413 5.04474 17.3057L13.4332 22.4614C14.2935 22.9898 15.404 22.8573 16.1159 22.1392L25.7215 12.4738C26.2051 11.9705 27.0054 11.9705 27.4889 12.4738C27.9725 12.9604 27.9725 13.7489 27.4889 14.2522L17.8667 23.9193C17.153 24.6357 17.0196 25.7514 17.5449 26.6171L22.6703 35.0896C23.2705 36.0962 24.3043 36.6667 25.4381 36.6667C25.5715 36.6667 25.7215 36.6667 25.8549 36.6499C27.1555 36.4821 28.1892 35.5929 28.5727 34.3346L36.526 7.54132C36.8761 6.40047 36.5593 5.15895 35.7256 4.30331Z" fill="#200E32"/>
</svg>
